<mxfile host="65bd71144e">
    <diagram id="hTK4OiivNuGYt8XNdCCA" name="Football">
        <mxGraphModel dx="1866" dy="1132" grid="1" gridSize="10" guides="1" tooltips="1" connect="1" arrows="1" fold="1" page="0" pageScale="1" pageWidth="1169" pageHeight="827" math="0" shadow="0">
            <root>
                <mxCell id="0"/>
                <mxCell id="1" parent="0"/>
                <mxCell id="12" style="edgeStyle=none;html=1;exitX=0.5;exitY=1;exitDx=0;exitDy=0;entryX=0;entryY=0.5;entryDx=0;entryDy=0;" parent="1" source="2" target="3" edge="1">
                    <mxGeometry relative="1" as="geometry"/>
                </mxCell>
                <mxCell id="2" value="Manager" style="whiteSpace=wrap;html=1;" parent="1" vertex="1">
                    <mxGeometry x="40" y="40" width="120" height="60" as="geometry"/>
                </mxCell>
                <mxCell id="3" value="Club" style="whiteSpace=wrap;html=1;" parent="1" vertex="1">
                    <mxGeometry x="200" y="140" width="120" height="60" as="geometry"/>
                </mxCell>
                <mxCell id="11" style="edgeStyle=none;html=1;exitX=0.5;exitY=0;exitDx=0;exitDy=0;entryX=0.25;entryY=1;entryDx=0;entryDy=0;" parent="1" source="4" target="3" edge="1">
                    <mxGeometry relative="1" as="geometry"/>
                </mxCell>
                <mxCell id="4" value="Color Scheme" style="whiteSpace=wrap;html=1;" parent="1" vertex="1">
                    <mxGeometry x="80" y="240" width="120" height="60" as="geometry"/>
                </mxCell>
                <mxCell id="10" style="edgeStyle=none;html=1;exitX=0.5;exitY=0;exitDx=0;exitDy=0;entryX=0.75;entryY=1;entryDx=0;entryDy=0;" parent="1" source="5" target="3" edge="1">
                    <mxGeometry relative="1" as="geometry"/>
                </mxCell>
                <mxCell id="5" value="Name" style="whiteSpace=wrap;html=1;" parent="1" vertex="1">
                    <mxGeometry x="320" y="240" width="120" height="60" as="geometry"/>
                </mxCell>
                <mxCell id="9" style="edgeStyle=none;html=1;exitX=0.5;exitY=1;exitDx=0;exitDy=0;entryX=1;entryY=0.5;entryDx=0;entryDy=0;" parent="1" source="6" target="3" edge="1">
                    <mxGeometry relative="1" as="geometry"/>
                </mxCell>
                <mxCell id="6" value="Home City" style="whiteSpace=wrap;html=1;" parent="1" vertex="1">
                    <mxGeometry x="360" y="80" width="120" height="60" as="geometry"/>
                </mxCell>
                <mxCell id="8" style="edgeStyle=none;html=1;exitX=0.5;exitY=1;exitDx=0;exitDy=0;entryX=0.5;entryY=0;entryDx=0;entryDy=0;" parent="1" source="7" target="3" edge="1">
                    <mxGeometry relative="1" as="geometry"/>
                </mxCell>
                <mxCell id="7" value="Home Arena" style="whiteSpace=wrap;html=1;" parent="1" vertex="1">
                    <mxGeometry x="200" width="120" height="60" as="geometry"/>
                </mxCell>
                <mxCell id="13" value="Player" style="whiteSpace=wrap;html=1;" parent="1" vertex="1">
                    <mxGeometry x="630" y="140" width="120" height="60" as="geometry"/>
                </mxCell>
                <mxCell id="17" style="edgeStyle=none;html=1;exitX=0.5;exitY=1;exitDx=0;exitDy=0;entryX=0.25;entryY=0;entryDx=0;entryDy=0;" parent="1" source="14" target="13" edge="1">
                    <mxGeometry relative="1" as="geometry"/>
                </mxCell>
                <mxCell id="14" value="Name" style="whiteSpace=wrap;html=1;" parent="1" vertex="1">
                    <mxGeometry x="540" y="40" width="120" height="60" as="geometry"/>
                </mxCell>
                <mxCell id="18" style="edgeStyle=none;html=1;exitX=0.5;exitY=1;exitDx=0;exitDy=0;entryX=0.75;entryY=0;entryDx=0;entryDy=0;" parent="1" source="15" target="13" edge="1">
                    <mxGeometry relative="1" as="geometry"/>
                </mxCell>
                <mxCell id="15" value="Age" style="whiteSpace=wrap;html=1;" parent="1" vertex="1">
                    <mxGeometry x="730" y="40" width="120" height="60" as="geometry"/>
                </mxCell>
                <mxCell id="19" value="" style="edgeStyle=none;html=1;" parent="1" source="16" target="13" edge="1">
                    <mxGeometry relative="1" as="geometry"/>
                </mxCell>
                <mxCell id="16" value="Home Country" style="whiteSpace=wrap;html=1;" parent="1" vertex="1">
                    <mxGeometry x="630" y="240" width="120" height="60" as="geometry"/>
                </mxCell>
                <mxCell id="20" value="Match" style="whiteSpace=wrap;html=1;" vertex="1" parent="1">
                    <mxGeometry x="1010" y="140" width="120" height="60" as="geometry"/>
                </mxCell>
                <mxCell id="22" value="" style="edgeStyle=none;html=1;" edge="1" parent="1" source="21" target="20">
                    <mxGeometry relative="1" as="geometry"/>
                </mxCell>
                <mxCell id="21" value="Arena" style="whiteSpace=wrap;html=1;" vertex="1" parent="1">
                    <mxGeometry x="1010" y="40" width="120" height="60" as="geometry"/>
                </mxCell>
                <mxCell id="25" style="edgeStyle=none;html=1;exitX=0.5;exitY=0;exitDx=0;exitDy=0;entryX=0.25;entryY=1;entryDx=0;entryDy=0;" edge="1" parent="1" source="23" target="20">
                    <mxGeometry relative="1" as="geometry"/>
                </mxCell>
                <mxCell id="23" value="Club" style="whiteSpace=wrap;html=1;" vertex="1" parent="1">
                    <mxGeometry x="880" y="230" width="120" height="60" as="geometry"/>
                </mxCell>
                <mxCell id="26" style="edgeStyle=none;html=1;exitX=0.5;exitY=0;exitDx=0;exitDy=0;entryX=0.75;entryY=1;entryDx=0;entryDy=0;" edge="1" parent="1" source="24" target="20">
                    <mxGeometry relative="1" as="geometry"/>
                </mxCell>
                <mxCell id="24" value="Outcome" style="whiteSpace=wrap;html=1;" vertex="1" parent="1">
                    <mxGeometry x="1140" y="230" width="120" height="60" as="geometry"/>
                </mxCell>
                <mxCell id="27" value="Match" style="whiteSpace=wrap;html=1;" vertex="1" parent="1">
                    <mxGeometry x="850" y="1050" width="120" height="60" as="geometry"/>
                </mxCell>
                <mxCell id="47" style="edgeStyle=none;html=1;exitX=0;exitY=0.5;exitDx=0;exitDy=0;entryX=0.75;entryY=1;entryDx=0;entryDy=0;" edge="1" parent="1" source="28" target="27">
                    <mxGeometry relative="1" as="geometry">
                        <Array as="points">
                            <mxPoint x="940" y="1180"/>
                        </Array>
                    </mxGeometry>
                </mxCell>
                <mxCell id="28" value="Arena" style="whiteSpace=wrap;html=1;" vertex="1" parent="1">
                    <mxGeometry x="970" y="1150" width="120" height="60" as="geometry"/>
                </mxCell>
                <mxCell id="46" value="" style="edgeStyle=none;html=1;" edge="1" parent="1" source="29" target="28">
                    <mxGeometry relative="1" as="geometry"/>
                </mxCell>
                <mxCell id="29" value="City" style="whiteSpace=wrap;html=1;" vertex="1" parent="1">
                    <mxGeometry x="970" y="1250" width="120" height="60" as="geometry"/>
                </mxCell>
                <mxCell id="45" value="" style="edgeStyle=none;html=1;" edge="1" parent="1" source="30" target="29">
                    <mxGeometry relative="1" as="geometry"/>
                </mxCell>
                <mxCell id="30" value="Country" style="whiteSpace=wrap;html=1;" vertex="1" parent="1">
                    <mxGeometry x="970" y="1350" width="120" height="60" as="geometry"/>
                </mxCell>
                <mxCell id="44" value="" style="edgeStyle=none;html=1;" edge="1" parent="1" source="31" target="30">
                    <mxGeometry relative="1" as="geometry"/>
                </mxCell>
                <mxCell id="31" value="Championship" style="whiteSpace=wrap;html=1;" vertex="1" parent="1">
                    <mxGeometry x="970" y="1450" width="120" height="60" as="geometry"/>
                </mxCell>
                <mxCell id="90" value="" style="edgeStyle=none;html=1;" edge="1" parent="1" source="36" target="27">
                    <mxGeometry relative="1" as="geometry"/>
                </mxCell>
                <mxCell id="36" value="Clubs" style="whiteSpace=wrap;html=1;" vertex="1" parent="1">
                    <mxGeometry x="850" y="950" width="120" height="60" as="geometry"/>
                </mxCell>
                <mxCell id="49" style="edgeStyle=none;html=1;entryX=1;entryY=0.5;entryDx=0;entryDy=0;startArrow=none;" edge="1" parent="1" source="38" target="36">
                    <mxGeometry relative="1" as="geometry">
                        <mxPoint x="1109" y="980" as="sourcePoint"/>
                        <Array as="points"/>
                    </mxGeometry>
                </mxCell>
                <mxCell id="48" style="edgeStyle=none;html=1;exitX=1;exitY=0.5;exitDx=0;exitDy=0;entryX=0;entryY=0.5;entryDx=0;entryDy=0;" edge="1" parent="1" source="39" target="36">
                    <mxGeometry relative="1" as="geometry">
                        <Array as="points"/>
                    </mxGeometry>
                </mxCell>
                <mxCell id="39" value="Away club" style="whiteSpace=wrap;html=1;" vertex="1" parent="1">
                    <mxGeometry x="680" y="950" width="120" height="60" as="geometry"/>
                </mxCell>
                <mxCell id="43" style="edgeStyle=none;html=1;exitX=1;exitY=0.5;exitDx=0;exitDy=0;entryX=0.25;entryY=1;entryDx=0;entryDy=0;" edge="1" parent="1" source="42" target="27">
                    <mxGeometry relative="1" as="geometry">
                        <Array as="points">
                            <mxPoint x="880" y="1180"/>
                        </Array>
                    </mxGeometry>
                </mxCell>
                <mxCell id="42" value="Outcome" style="whiteSpace=wrap;html=1;" vertex="1" parent="1">
                    <mxGeometry x="740" y="1150" width="120" height="60" as="geometry"/>
                </mxCell>
                <mxCell id="122" style="edgeStyle=none;html=1;exitX=0.5;exitY=0;exitDx=0;exitDy=0;entryX=0.25;entryY=1;entryDx=0;entryDy=0;" edge="1" parent="1" source="50" target="119">
                    <mxGeometry relative="1" as="geometry">
                        <Array as="points">
                            <mxPoint x="670" y="1530"/>
                            <mxPoint x="800" y="1530"/>
                        </Array>
                    </mxGeometry>
                </mxCell>
                <mxCell id="50" value="Home" style="whiteSpace=wrap;html=1;" vertex="1" parent="1">
                    <mxGeometry x="610" y="1550" width="120" height="60" as="geometry"/>
                </mxCell>
                <mxCell id="121" value="" style="edgeStyle=none;html=1;" edge="1" parent="1" source="51" target="119">
                    <mxGeometry relative="1" as="geometry"/>
                </mxCell>
                <mxCell id="51" value="Away" style="whiteSpace=wrap;html=1;" vertex="1" parent="1">
                    <mxGeometry x="770" y="1550" width="120" height="60" as="geometry"/>
                </mxCell>
                <mxCell id="123" style="edgeStyle=none;html=1;exitX=0.5;exitY=0;exitDx=0;exitDy=0;entryX=0.75;entryY=1;entryDx=0;entryDy=0;" edge="1" parent="1" source="52" target="119">
                    <mxGeometry relative="1" as="geometry">
                        <Array as="points">
                            <mxPoint x="990" y="1530"/>
                            <mxPoint x="860" y="1530"/>
                        </Array>
                    </mxGeometry>
                </mxCell>
                <mxCell id="52" value="Draw" style="whiteSpace=wrap;html=1;" vertex="1" parent="1">
                    <mxGeometry x="930" y="1550" width="120" height="60" as="geometry"/>
                </mxCell>
                <mxCell id="60" value="" style="edgeStyle=none;html=1;" edge="1" parent="1" source="56" target="42">
                    <mxGeometry relative="1" as="geometry"/>
                </mxCell>
                <mxCell id="56" value="End-result" style="whiteSpace=wrap;html=1;" vertex="1" parent="1">
                    <mxGeometry x="740" y="1250" width="120" height="60" as="geometry"/>
                </mxCell>
                <mxCell id="62" style="edgeStyle=none;html=1;exitX=0.5;exitY=0;exitDx=0;exitDy=0;entryX=0.25;entryY=1;entryDx=0;entryDy=0;" edge="1" parent="1" source="57" target="56">
                    <mxGeometry relative="1" as="geometry">
                        <mxPoint x="780" y="1310" as="targetPoint"/>
                        <Array as="points">
                            <mxPoint x="420" y="1432"/>
                            <mxPoint x="770" y="1432"/>
                        </Array>
                    </mxGeometry>
                </mxCell>
                <mxCell id="57" value="Cards" style="whiteSpace=wrap;html=1;" vertex="1" parent="1">
                    <mxGeometry x="360" y="1450" width="120" height="60" as="geometry"/>
                </mxCell>
                <mxCell id="66" value="" style="edgeStyle=none;html=1;exitX=0.5;exitY=0;exitDx=0;exitDy=0;entryX=0.25;entryY=1;entryDx=0;entryDy=0;" edge="1" parent="1" source="58" target="57">
                    <mxGeometry relative="1" as="geometry">
                        <Array as="points">
                            <mxPoint x="340" y="1530"/>
                            <mxPoint x="390" y="1530"/>
                        </Array>
                    </mxGeometry>
                </mxCell>
                <mxCell id="58" value="Yellow" style="whiteSpace=wrap;html=1;" vertex="1" parent="1">
                    <mxGeometry x="280" y="1550" width="120" height="60" as="geometry"/>
                </mxCell>
                <mxCell id="118" style="edgeStyle=none;html=1;exitX=0.5;exitY=0;exitDx=0;exitDy=0;entryX=0.75;entryY=1;entryDx=0;entryDy=0;" edge="1" parent="1" source="59" target="57">
                    <mxGeometry relative="1" as="geometry">
                        <Array as="points">
                            <mxPoint x="500" y="1530"/>
                            <mxPoint x="450" y="1530"/>
                        </Array>
                    </mxGeometry>
                </mxCell>
                <mxCell id="59" value="Red" style="whiteSpace=wrap;html=1;" vertex="1" parent="1">
                    <mxGeometry x="440" y="1550" width="120" height="60" as="geometry"/>
                </mxCell>
                <mxCell id="76" value="" style="edgeStyle=none;html=1;" edge="1" parent="1" source="67" target="42">
                    <mxGeometry relative="1" as="geometry"/>
                </mxCell>
                <mxCell id="67" value="Stats" style="whiteSpace=wrap;html=1;" vertex="1" parent="1">
                    <mxGeometry x="510" y="1150" width="120" height="60" as="geometry"/>
                </mxCell>
                <mxCell id="77" value="" style="edgeStyle=none;html=1;entryX=0.5;entryY=0;entryDx=0;entryDy=0;" edge="1" parent="1" source="69" target="67">
                    <mxGeometry relative="1" as="geometry">
                        <mxPoint x="570" y="1110" as="targetPoint"/>
                    </mxGeometry>
                </mxCell>
                <mxCell id="69" value="Posession" style="whiteSpace=wrap;html=1;" vertex="1" parent="1">
                    <mxGeometry x="510" y="1000" width="120" height="60" as="geometry"/>
                </mxCell>
                <mxCell id="89" style="edgeStyle=none;html=1;exitX=1;exitY=0.5;exitDx=0;exitDy=0;entryX=0;entryY=0.75;entryDx=0;entryDy=0;" edge="1" parent="1" source="70" target="81">
                    <mxGeometry relative="1" as="geometry">
                        <Array as="points">
                            <mxPoint x="330" y="1280"/>
                            <mxPoint x="330" y="1195"/>
                        </Array>
                    </mxGeometry>
                </mxCell>
                <mxCell id="70" value="Corners" style="whiteSpace=wrap;html=1;" vertex="1" parent="1">
                    <mxGeometry x="190" y="1250" width="120" height="60" as="geometry"/>
                </mxCell>
                <mxCell id="75" value="" style="edgeStyle=none;html=1;" edge="1" parent="1" source="71" target="67">
                    <mxGeometry relative="1" as="geometry"/>
                </mxCell>
                <mxCell id="71" value="Penalties" style="whiteSpace=wrap;html=1;" vertex="1" parent="1">
                    <mxGeometry x="510" y="1250" width="120" height="60" as="geometry"/>
                </mxCell>
                <mxCell id="80" style="edgeStyle=none;html=1;exitX=1;exitY=0.5;exitDx=0;exitDy=0;entryX=0;entryY=0.25;entryDx=0;entryDy=0;" edge="1" parent="1" source="72" target="69">
                    <mxGeometry relative="1" as="geometry">
                        <Array as="points">
                            <mxPoint x="490" y="990"/>
                            <mxPoint x="490" y="1015"/>
                        </Array>
                    </mxGeometry>
                </mxCell>
                <mxCell id="72" value="Forward" style="whiteSpace=wrap;html=1;" vertex="1" parent="1">
                    <mxGeometry x="350" y="960" width="120" height="60" as="geometry"/>
                </mxCell>
                <mxCell id="79" style="edgeStyle=none;html=1;exitX=1;exitY=0.5;exitDx=0;exitDy=0;entryX=0;entryY=0.75;entryDx=0;entryDy=0;" edge="1" parent="1" source="73" target="69">
                    <mxGeometry relative="1" as="geometry">
                        <Array as="points">
                            <mxPoint x="490" y="1077"/>
                            <mxPoint x="490" y="1045"/>
                        </Array>
                    </mxGeometry>
                </mxCell>
                <mxCell id="73" value="Backward" style="whiteSpace=wrap;html=1;" vertex="1" parent="1">
                    <mxGeometry x="350" y="1047" width="120" height="60" as="geometry"/>
                </mxCell>
                <mxCell id="87" style="edgeStyle=none;html=1;exitX=1;exitY=0.5;exitDx=0;exitDy=0;entryX=0;entryY=0.25;entryDx=0;entryDy=0;" edge="1" parent="1" source="74" target="81">
                    <mxGeometry relative="1" as="geometry">
                        <mxPoint x="330" y="1170" as="targetPoint"/>
                        <Array as="points">
                            <mxPoint x="330" y="1077"/>
                            <mxPoint x="330" y="1165"/>
                        </Array>
                    </mxGeometry>
                </mxCell>
                <mxCell id="74" value="Throw-in" style="whiteSpace=wrap;html=1;" vertex="1" parent="1">
                    <mxGeometry x="190" y="1047" width="120" height="60" as="geometry"/>
                </mxCell>
                <mxCell id="88" value="" style="edgeStyle=none;html=1;" edge="1" parent="1" source="78" target="81">
                    <mxGeometry relative="1" as="geometry"/>
                </mxCell>
                <mxCell id="78" value="Goal kick" style="whiteSpace=wrap;html=1;" vertex="1" parent="1">
                    <mxGeometry x="190" y="1150" width="120" height="60" as="geometry"/>
                </mxCell>
                <mxCell id="82" value="" style="edgeStyle=none;html=1;" edge="1" parent="1" source="81" target="67">
                    <mxGeometry relative="1" as="geometry"/>
                </mxCell>
                <mxCell id="81" value="Team specific&lt;br&gt;ball actions" style="whiteSpace=wrap;html=1;" vertex="1" parent="1">
                    <mxGeometry x="350" y="1150" width="120" height="60" as="geometry"/>
                </mxCell>
                <mxCell id="84" value="" style="edgeStyle=none;html=1;" edge="1" parent="1" source="83" target="71">
                    <mxGeometry relative="1" as="geometry"/>
                </mxCell>
                <mxCell id="83" value="Free-kick" style="whiteSpace=wrap;html=1;" vertex="1" parent="1">
                    <mxGeometry x="360" y="1250" width="120" height="60" as="geometry"/>
                </mxCell>
                <mxCell id="86" style="edgeStyle=none;html=1;exitX=1;exitY=0.5;exitDx=0;exitDy=0;entryX=0.5;entryY=1;entryDx=0;entryDy=0;" edge="1" parent="1" source="85" target="71">
                    <mxGeometry relative="1" as="geometry">
                        <Array as="points">
                            <mxPoint x="570" y="1380"/>
                        </Array>
                    </mxGeometry>
                </mxCell>
                <mxCell id="85" value="Penalty kick" style="whiteSpace=wrap;html=1;" vertex="1" parent="1">
                    <mxGeometry x="360" y="1350" width="120" height="60" as="geometry"/>
                </mxCell>
                <mxCell id="134" style="edgeStyle=none;html=1;exitX=0.5;exitY=1;exitDx=0;exitDy=0;entryX=0.5;entryY=0;entryDx=0;entryDy=0;" edge="1" parent="1" source="91" target="36">
                    <mxGeometry relative="1" as="geometry">
                        <Array as="points">
                            <mxPoint x="1170" y="900"/>
                            <mxPoint x="910" y="900"/>
                        </Array>
                    </mxGeometry>
                </mxCell>
                <mxCell id="91" value="Color scheme" style="whiteSpace=wrap;html=1;" vertex="1" parent="1">
                    <mxGeometry x="1110" y="818" width="120" height="60" as="geometry"/>
                </mxCell>
                <mxCell id="133" style="edgeStyle=none;html=1;exitX=1;exitY=0.5;exitDx=0;exitDy=0;entryX=0.5;entryY=0;entryDx=0;entryDy=0;" edge="1" parent="1" source="92" target="36">
                    <mxGeometry relative="1" as="geometry">
                        <Array as="points">
                            <mxPoint x="910" y="848"/>
                        </Array>
                    </mxGeometry>
                </mxCell>
                <mxCell id="92" value="Home arena" style="whiteSpace=wrap;html=1;" vertex="1" parent="1">
                    <mxGeometry x="770" y="818" width="120" height="60" as="geometry"/>
                </mxCell>
                <mxCell id="135" style="edgeStyle=none;html=1;exitX=0.5;exitY=1;exitDx=0;exitDy=0;entryX=0.5;entryY=0;entryDx=0;entryDy=0;" edge="1" parent="1" source="95" target="36">
                    <mxGeometry relative="1" as="geometry">
                        <Array as="points">
                            <mxPoint x="670" y="900"/>
                            <mxPoint x="910" y="900"/>
                        </Array>
                    </mxGeometry>
                </mxCell>
                <mxCell id="95" value="Home city" style="whiteSpace=wrap;html=1;" vertex="1" parent="1">
                    <mxGeometry x="610" y="818" width="120" height="60" as="geometry"/>
                </mxCell>
                <mxCell id="132" style="edgeStyle=none;html=1;exitX=0;exitY=0.5;exitDx=0;exitDy=0;entryX=0.5;entryY=0;entryDx=0;entryDy=0;" edge="1" parent="1" source="97" target="36">
                    <mxGeometry relative="1" as="geometry">
                        <Array as="points">
                            <mxPoint x="910" y="848"/>
                        </Array>
                    </mxGeometry>
                </mxCell>
                <mxCell id="97" value="Name" style="whiteSpace=wrap;html=1;" vertex="1" parent="1">
                    <mxGeometry x="940" y="818" width="120" height="60" as="geometry"/>
                </mxCell>
                <mxCell id="104" style="edgeStyle=none;html=1;exitX=0.5;exitY=1;exitDx=0;exitDy=0;entryX=0.75;entryY=0;entryDx=0;entryDy=0;" edge="1" parent="1" source="100" target="36">
                    <mxGeometry relative="1" as="geometry">
                        <Array as="points">
                            <mxPoint x="1340" y="920"/>
                            <mxPoint x="940" y="920"/>
                        </Array>
                    </mxGeometry>
                </mxCell>
                <mxCell id="100" value="Manager" style="whiteSpace=wrap;html=1;" vertex="1" parent="1">
                    <mxGeometry x="1280" y="820" width="120" height="60" as="geometry"/>
                </mxCell>
                <mxCell id="38" value="Home club" style="whiteSpace=wrap;html=1;" vertex="1" parent="1">
                    <mxGeometry x="1020" y="950" width="120" height="60" as="geometry"/>
                </mxCell>
                <mxCell id="101" value="" style="edgeStyle=none;html=1;entryX=1;entryY=0.5;entryDx=0;entryDy=0;endArrow=none;" edge="1" parent="1" target="38">
                    <mxGeometry relative="1" as="geometry">
                        <mxPoint x="1109" y="980" as="sourcePoint"/>
                        <mxPoint x="970" y="980" as="targetPoint"/>
                        <Array as="points"/>
                    </mxGeometry>
                </mxCell>
                <mxCell id="103" value="" style="edgeStyle=none;html=1;entryX=0.25;entryY=0;entryDx=0;entryDy=0;exitX=0.5;exitY=1;exitDx=0;exitDy=0;" edge="1" parent="1" source="102" target="36">
                    <mxGeometry relative="1" as="geometry">
                        <Array as="points">
                            <mxPoint x="390" y="920"/>
                            <mxPoint x="880" y="920"/>
                        </Array>
                    </mxGeometry>
                </mxCell>
                <mxCell id="102" value="Player" style="whiteSpace=wrap;html=1;" vertex="1" parent="1">
                    <mxGeometry x="330" y="820" width="120" height="60" as="geometry"/>
                </mxCell>
                <mxCell id="110" value="" style="edgeStyle=none;html=1;exitX=0.5;exitY=1;exitDx=0;exitDy=0;entryX=0.75;entryY=0;entryDx=0;entryDy=0;" edge="1" parent="1" source="105" target="102">
                    <mxGeometry relative="1" as="geometry">
                        <Array as="points">
                            <mxPoint x="550" y="800"/>
                            <mxPoint x="420" y="800"/>
                        </Array>
                    </mxGeometry>
                </mxCell>
                <mxCell id="105" value="Name" style="whiteSpace=wrap;html=1;" vertex="1" parent="1">
                    <mxGeometry x="490" y="720" width="120" height="60" as="geometry"/>
                </mxCell>
                <mxCell id="124" value="" style="edgeStyle=none;html=1;" edge="1" parent="1" source="106" target="102">
                    <mxGeometry relative="1" as="geometry"/>
                </mxCell>
                <mxCell id="106" value="Age" style="whiteSpace=wrap;html=1;" vertex="1" parent="1">
                    <mxGeometry x="330" y="720" width="120" height="60" as="geometry"/>
                </mxCell>
                <mxCell id="125" style="edgeStyle=none;html=1;exitX=0.5;exitY=1;exitDx=0;exitDy=0;entryX=0.25;entryY=0;entryDx=0;entryDy=0;" edge="1" parent="1" source="107" target="102">
                    <mxGeometry relative="1" as="geometry">
                        <Array as="points">
                            <mxPoint x="230" y="800"/>
                            <mxPoint x="360" y="800"/>
                        </Array>
                    </mxGeometry>
                </mxCell>
                <mxCell id="107" value="Home country" style="whiteSpace=wrap;html=1;" vertex="1" parent="1">
                    <mxGeometry x="170" y="720" width="120" height="60" as="geometry"/>
                </mxCell>
                <mxCell id="120" style="edgeStyle=none;html=1;exitX=0.5;exitY=0;exitDx=0;exitDy=0;entryX=0.75;entryY=1;entryDx=0;entryDy=0;" edge="1" parent="1" source="119" target="56">
                    <mxGeometry relative="1" as="geometry"/>
                </mxCell>
                <mxCell id="119" value="Score result" style="whiteSpace=wrap;html=1;" vertex="1" parent="1">
                    <mxGeometry x="770" y="1450" width="120" height="60" as="geometry"/>
                </mxCell>
                <mxCell id="126" value="" style="edgeStyle=none;html=1;exitX=0.5;exitY=1;exitDx=0;exitDy=0;entryX=0.75;entryY=0;entryDx=0;entryDy=0;" edge="1" parent="1" source="127" target="100">
                    <mxGeometry relative="1" as="geometry">
                        <mxPoint x="1370.0000000000002" y="818" as="targetPoint"/>
                        <Array as="points">
                            <mxPoint x="1500" y="798"/>
                            <mxPoint x="1370" y="798"/>
                        </Array>
                    </mxGeometry>
                </mxCell>
                <mxCell id="127" value="Name" style="whiteSpace=wrap;html=1;" vertex="1" parent="1">
                    <mxGeometry x="1440" y="718" width="120" height="60" as="geometry"/>
                </mxCell>
                <mxCell id="128" value="" style="edgeStyle=none;html=1;entryX=0.5;entryY=0;entryDx=0;entryDy=0;" edge="1" parent="1" source="129" target="100">
                    <mxGeometry relative="1" as="geometry">
                        <mxPoint x="1340" y="800" as="targetPoint"/>
                    </mxGeometry>
                </mxCell>
                <mxCell id="129" value="Age" style="whiteSpace=wrap;html=1;" vertex="1" parent="1">
                    <mxGeometry x="1280" y="718" width="120" height="60" as="geometry"/>
                </mxCell>
                <mxCell id="130" style="edgeStyle=none;html=1;exitX=0.5;exitY=1;exitDx=0;exitDy=0;entryX=0.25;entryY=0;entryDx=0;entryDy=0;" edge="1" parent="1" source="131" target="100">
                    <mxGeometry relative="1" as="geometry">
                        <mxPoint x="1310" y="818" as="targetPoint"/>
                        <Array as="points">
                            <mxPoint x="1180" y="798"/>
                            <mxPoint x="1310" y="798"/>
                        </Array>
                    </mxGeometry>
                </mxCell>
                <mxCell id="131" value="Home country" style="whiteSpace=wrap;html=1;" vertex="1" parent="1">
                    <mxGeometry x="1120" y="718" width="120" height="60" as="geometry"/>
                </mxCell>
                <mxCell id="137" value="" style="edgeStyle=none;html=1;" edge="1" parent="1" source="136" target="102">
                    <mxGeometry relative="1" as="geometry"/>
                </mxCell>
                <mxCell id="136" value="Historics" style="whiteSpace=wrap;html=1;" vertex="1" parent="1">
                    <mxGeometry x="170" y="820" width="120" height="60" as="geometry"/>
                </mxCell>
                <mxCell id="139" value="" style="edgeStyle=none;html=1;" edge="1" parent="1" source="138" target="136">
                    <mxGeometry relative="1" as="geometry"/>
                </mxCell>
                <mxCell id="138" value="Clubs" style="whiteSpace=wrap;html=1;" vertex="1" parent="1">
                    <mxGeometry x="10" y="820" width="120" height="60" as="geometry"/>
                </mxCell>
                <mxCell id="141" style="edgeStyle=none;html=1;exitX=1;exitY=0.5;exitDx=0;exitDy=0;entryX=0.5;entryY=1;entryDx=0;entryDy=0;" edge="1" parent="1" source="140" target="136">
                    <mxGeometry relative="1" as="geometry">
                        <Array as="points">
                            <mxPoint x="230" y="960"/>
                        </Array>
                    </mxGeometry>
                </mxCell>
                <mxCell id="140" value="Statistics" style="whiteSpace=wrap;html=1;" vertex="1" parent="1">
                    <mxGeometry x="10" y="930" width="120" height="60" as="geometry"/>
                </mxCell>
                <mxCell id="148" value="" style="edgeStyle=none;html=1;" edge="1" parent="1" source="143" target="100">
                    <mxGeometry relative="1" as="geometry"/>
                </mxCell>
                <mxCell id="143" value="Historics" style="whiteSpace=wrap;html=1;" vertex="1" parent="1">
                    <mxGeometry x="1440" y="820" width="120" height="60" as="geometry"/>
                </mxCell>
                <mxCell id="144" value="" style="edgeStyle=none;html=1;" edge="1" parent="1" source="145" target="143">
                    <mxGeometry relative="1" as="geometry"/>
                </mxCell>
                <mxCell id="145" value="Clubs" style="whiteSpace=wrap;html=1;" vertex="1" parent="1">
                    <mxGeometry x="1600" y="820" width="120" height="60" as="geometry"/>
                </mxCell>
                <mxCell id="146" style="edgeStyle=none;html=1;exitX=0;exitY=0.5;exitDx=0;exitDy=0;entryX=0.5;entryY=1;entryDx=0;entryDy=0;" edge="1" parent="1" source="147" target="143">
                    <mxGeometry relative="1" as="geometry">
                        <Array as="points">
                            <mxPoint x="1500" y="950"/>
                        </Array>
                    </mxGeometry>
                </mxCell>
                <mxCell id="147" value="Statistics" style="whiteSpace=wrap;html=1;" vertex="1" parent="1">
                    <mxGeometry x="1600" y="920" width="120" height="60" as="geometry"/>
                </mxCell>
                <mxCell id="150" style="edgeStyle=none;html=1;exitX=0.5;exitY=1;exitDx=0;exitDy=0;entryX=0.5;entryY=0;entryDx=0;entryDy=0;" edge="1" parent="1" source="149" target="36">
                    <mxGeometry relative="1" as="geometry"/>
                </mxCell>
                <mxCell id="149" value="Historics" style="whiteSpace=wrap;html=1;" vertex="1" parent="1">
                    <mxGeometry x="849" y="718" width="120" height="60" as="geometry"/>
                </mxCell>
                <mxCell id="156" style="edgeStyle=none;html=1;exitX=0.5;exitY=1;exitDx=0;exitDy=0;entryX=0.25;entryY=0;entryDx=0;entryDy=0;" edge="1" parent="1" source="151" target="149">
                    <mxGeometry relative="1" as="geometry">
                        <Array as="points">
                            <mxPoint x="745" y="690"/>
                            <mxPoint x="875" y="690"/>
                        </Array>
                    </mxGeometry>
                </mxCell>
                <mxCell id="151" value="Players" style="whiteSpace=wrap;html=1;" vertex="1" parent="1">
                    <mxGeometry x="685" y="610" width="120" height="60" as="geometry"/>
                </mxCell>
                <mxCell id="154" style="edgeStyle=none;html=1;exitX=0.5;exitY=1;exitDx=0;exitDy=0;entryX=0.5;entryY=0;entryDx=0;entryDy=0;" edge="1" parent="1" source="152" target="149">
                    <mxGeometry relative="1" as="geometry"/>
                </mxCell>
                <mxCell id="152" value="Managers" style="whiteSpace=wrap;html=1;" vertex="1" parent="1">
                    <mxGeometry x="849" y="610" width="120" height="60" as="geometry"/>
                </mxCell>
                <mxCell id="155" style="edgeStyle=none;html=1;exitX=0.5;exitY=1;exitDx=0;exitDy=0;entryX=0.75;entryY=0;entryDx=0;entryDy=0;" edge="1" parent="1" source="153" target="149">
                    <mxGeometry relative="1" as="geometry">
                        <Array as="points">
                            <mxPoint x="1075" y="690"/>
                            <mxPoint x="939" y="690"/>
                        </Array>
                    </mxGeometry>
                </mxCell>
                <mxCell id="153" value="Performance" style="whiteSpace=wrap;html=1;" vertex="1" parent="1">
                    <mxGeometry x="1015" y="610" width="120" height="60" as="geometry"/>
                </mxCell>
                <mxCell id="158" value="" style="edgeStyle=none;html=1;" edge="1" parent="1" source="157" target="27">
                    <mxGeometry relative="1" as="geometry"/>
                </mxCell>
                <mxCell id="157" value="Time" style="whiteSpace=wrap;html=1;" vertex="1" parent="1">
                    <mxGeometry x="1020" y="1050" width="120" height="60" as="geometry"/>
                </mxCell>
                <mxCell id="161" style="edgeStyle=none;html=1;exitX=0.5;exitY=0;exitDx=0;exitDy=0;entryX=1;entryY=0.5;entryDx=0;entryDy=0;" edge="1" parent="1" source="159" target="157">
                    <mxGeometry relative="1" as="geometry">
                        <Array as="points">
                            <mxPoint x="1240" y="1080"/>
                        </Array>
                    </mxGeometry>
                </mxCell>
                <mxCell id="159" value="Game time" style="whiteSpace=wrap;html=1;" vertex="1" parent="1">
                    <mxGeometry x="1180" y="1110" width="120" height="60" as="geometry"/>
                </mxCell>
                <mxCell id="162" style="edgeStyle=none;html=1;exitX=0.5;exitY=0;exitDx=0;exitDy=0;entryX=1;entryY=0.5;entryDx=0;entryDy=0;" edge="1" parent="1" source="160" target="157">
                    <mxGeometry relative="1" as="geometry">
                        <mxPoint x="1240" y="1080" as="targetPoint"/>
                        <Array as="points">
                            <mxPoint x="1400" y="1080"/>
                        </Array>
                    </mxGeometry>
                </mxCell>
                <mxCell id="160" value="Match time" style="whiteSpace=wrap;html=1;" vertex="1" parent="1">
                    <mxGeometry x="1340" y="1110" width="120" height="60" as="geometry"/>
                </mxCell>
                <mxCell id="173" value="" style="edgeStyle=none;html=1;" edge="1" parent="1" source="163" target="165">
                    <mxGeometry relative="1" as="geometry"/>
                </mxCell>
                <mxCell id="163" value="Minute" style="whiteSpace=wrap;html=1;" vertex="1" parent="1">
                    <mxGeometry x="1180" y="1310" width="120" height="60" as="geometry"/>
                </mxCell>
                <mxCell id="172" style="edgeStyle=none;html=1;" edge="1" parent="1" source="164" target="163">
                    <mxGeometry relative="1" as="geometry"/>
                </mxCell>
                <mxCell id="164" value="Hour" style="whiteSpace=wrap;html=1;" vertex="1" parent="1">
                    <mxGeometry x="1180" y="1410" width="120" height="60" as="geometry"/>
                </mxCell>
                <mxCell id="174" value="" style="edgeStyle=none;html=1;" edge="1" parent="1" source="165" target="159">
                    <mxGeometry relative="1" as="geometry"/>
                </mxCell>
                <mxCell id="165" value="Second" style="whiteSpace=wrap;html=1;" vertex="1" parent="1">
                    <mxGeometry x="1180" y="1210" width="120" height="60" as="geometry"/>
                </mxCell>
                <mxCell id="171" value="" style="edgeStyle=none;html=1;" edge="1" parent="1" source="166" target="164">
                    <mxGeometry relative="1" as="geometry"/>
                </mxCell>
                <mxCell id="166" value="Day" style="whiteSpace=wrap;html=1;" vertex="1" parent="1">
                    <mxGeometry x="1180" y="1510" width="120" height="60" as="geometry"/>
                </mxCell>
                <mxCell id="170" value="" style="edgeStyle=none;html=1;" edge="1" parent="1" source="167" target="166">
                    <mxGeometry relative="1" as="geometry"/>
                </mxCell>
                <mxCell id="167" value="Month" style="whiteSpace=wrap;html=1;" vertex="1" parent="1">
                    <mxGeometry x="1180" y="1610" width="120" height="60" as="geometry"/>
                </mxCell>
                <mxCell id="169" value="" style="edgeStyle=none;html=1;" edge="1" parent="1" source="168" target="167">
                    <mxGeometry relative="1" as="geometry"/>
                </mxCell>
                <mxCell id="168" value="Year" style="whiteSpace=wrap;html=1;" vertex="1" parent="1">
                    <mxGeometry x="1180" y="1700" width="120" height="60" as="geometry"/>
                </mxCell>
                <mxCell id="176" value="" style="edgeStyle=none;html=1;entryX=1;entryY=0.5;entryDx=0;entryDy=0;exitX=0.5;exitY=0;exitDx=0;exitDy=0;" edge="1" parent="1" source="175" target="160">
                    <mxGeometry relative="1" as="geometry">
                        <mxPoint x="1560" y="1170" as="targetPoint"/>
                        <Array as="points">
                            <mxPoint x="1560" y="1140"/>
                        </Array>
                    </mxGeometry>
                </mxCell>
                <mxCell id="175" value="Period" style="whiteSpace=wrap;html=1;" vertex="1" parent="1">
                    <mxGeometry x="1500" y="1210" width="120" height="60" as="geometry"/>
                </mxCell>
                <mxCell id="177" value="" style="edgeStyle=none;html=1;" edge="1" parent="1" source="178" target="180">
                    <mxGeometry relative="1" as="geometry"/>
                </mxCell>
                <mxCell id="178" value="Minute" style="whiteSpace=wrap;html=1;" vertex="1" parent="1">
                    <mxGeometry x="1340" y="1310" width="120" height="60" as="geometry"/>
                </mxCell>
                <mxCell id="179" value="" style="edgeStyle=none;html=1;" edge="1" parent="1" source="180">
                    <mxGeometry relative="1" as="geometry">
                        <mxPoint x="1400" y="1170" as="targetPoint"/>
                    </mxGeometry>
                </mxCell>
                <mxCell id="180" value="Second" style="whiteSpace=wrap;html=1;" vertex="1" parent="1">
                    <mxGeometry x="1340" y="1210" width="120" height="60" as="geometry"/>
                </mxCell>
                <mxCell id="184" style="edgeStyle=none;html=1;exitX=0;exitY=0.5;exitDx=0;exitDy=0;entryX=1;entryY=0.25;entryDx=0;entryDy=0;" edge="1" parent="1" source="181" target="175">
                    <mxGeometry relative="1" as="geometry">
                        <Array as="points">
                            <mxPoint x="1640" y="1200"/>
                            <mxPoint x="1640" y="1225"/>
                        </Array>
                    </mxGeometry>
                </mxCell>
                <mxCell id="181" value="First period" style="whiteSpace=wrap;html=1;" vertex="1" parent="1">
                    <mxGeometry x="1660" y="1170" width="120" height="60" as="geometry"/>
                </mxCell>
                <mxCell id="183" style="edgeStyle=none;html=1;entryX=1;entryY=0.75;entryDx=0;entryDy=0;exitX=0;exitY=0.5;exitDx=0;exitDy=0;" edge="1" parent="1" source="182" target="175">
                    <mxGeometry relative="1" as="geometry">
                        <Array as="points">
                            <mxPoint x="1640" y="1280"/>
                            <mxPoint x="1640" y="1255"/>
                        </Array>
                    </mxGeometry>
                </mxCell>
                <mxCell id="182" value="Second period" style="whiteSpace=wrap;html=1;" vertex="1" parent="1">
                    <mxGeometry x="1660" y="1250" width="120" height="60" as="geometry"/>
                </mxCell>
            </root>
        </mxGraphModel>
    </diagram>
</mxfile>